<svg width="16" height="7" viewBox="0 0 16 7" fill="none" xmlns="http://www.w3.org/2000/svg">
<path d="M15.8167 3.10041C15.8165 3.10024 15.8163 3.10004 15.8161 3.09987L12.5504 0.164385C12.3057 -0.055522 11.91 -0.0547037 11.6665 0.166305C11.423 0.387284 11.4239 0.744708 11.6686 0.964644L13.8612 2.93548H0.625C0.279812 2.93548 0 3.18822 0 3.5C0 3.81178 0.279812 4.06452 0.625 4.06452H13.8611L11.6686 6.03536C11.4239 6.25529 11.423 6.61272 11.6665 6.8337C11.91 7.05473 12.3058 7.05549 12.5504 6.83561L15.8161 3.90013C15.8163 3.89996 15.8165 3.89976 15.8167 3.89959C16.0615 3.67892 16.0607 3.32034 15.8167 3.10041Z" fill="#BCBCBC"/>
</svg>
