<svg width="14" height="13" viewBox="0 0 14 13" fill="none" xmlns="http://www.w3.org/2000/svg">
<path d="M13.8246 6.34274C14.0784 6.07503 14.0539 5.66471 13.7699 5.42651L7.51311 0.17543C7.22911 -0.0627782 6.7738 -0.0577881 6.49578 0.186679L0.21774 5.70647C-0.0602765 5.95094 -0.0739217 6.36073 0.187528 6.6214L0.344928 6.77863C0.606058 7.03929 1.02815 7.07037 1.28709 6.84783L1.75627 6.44482V12.345C1.75627 12.7069 2.06208 13 2.43922 13H4.88642C5.26356 13 5.56937 12.7069 5.56937 12.345V8.21724H8.69079V12.345C8.68536 12.7067 8.95521 12.9997 9.33235 12.9997H11.9258C12.3029 12.9997 12.6087 12.7067 12.6087 12.3447V6.5279C12.6087 6.5279 12.7383 6.63681 12.8982 6.77158C13.0578 6.90609 13.393 6.79824 13.6468 6.53026L13.8246 6.34274Z" fill="#BCBCBC"/>
</svg>
