<svg width="30" height="30" viewBox="0 0 30 30" fill="none" xmlns="http://www.w3.org/2000/svg">
<path d="M30 0H0V30H30V0Z" fill="#50ABF1"/>
<path d="M3.97452 22.2382C5.97109 23.5045 8.33946 24.2373 10.8783 24.2373C18.0107 24.2373 23.7925 18.4549 23.7925 11.3231C23.7925 11.145 23.7887 10.9683 23.7819 10.7921C24.0398 10.5891 25.6354 9.31022 26.0265 8.48809C26.0265 8.48809 24.7308 9.02656 23.4627 9.15341C23.4602 9.15341 23.4571 9.15401 23.4546 9.15401C23.4546 9.15401 23.4571 9.15276 23.4614 9.14966C23.5783 9.07159 25.2118 7.95955 25.433 6.63456C25.433 6.63456 24.5166 7.12373 23.2334 7.55168C23.021 7.62225 22.7986 7.69163 22.5693 7.75594C21.7422 6.87319 20.5665 6.3222 19.2614 6.3222C16.7582 6.3222 14.7297 8.35004 14.7297 10.8514C14.7297 11.2044 14.7704 11.5479 14.8472 11.8778C14.4974 11.8634 9.17035 11.5648 5.54637 7.17613C5.54637 7.17613 3.38048 10.1329 6.83706 13.1734C6.83706 13.1734 5.78631 13.1315 4.87979 12.5899C4.87979 12.5899 4.54683 16.172 8.46131 17.0879C8.46131 17.0879 7.69105 17.3796 6.46223 17.1716C6.46223 17.1716 7.14942 20.066 10.6273 20.3365C10.6273 20.3365 7.87715 22.8208 3.97327 22.2379L3.97452 22.2382Z" fill="white"/>
</svg>
